# xmcd CD database file
#
# Track frame offsets:
#	150
#	24057
#	47917
#	78472
#	102060
#	120395
#	144727
#	164730
#	182235
#	201725
#
# Disc length: 3052 seconds
#
# Revision: 4
# Processed by: cddbd v1.4PL0 Copyright (c) Steve Scherf et al.
# Submitted via: CDex 1.40Release
#
DISCID=8a0bea0a
DTITLE=Mo Foster - Southern Reunion
DYEAR=1991
DGENRE=Jazz
TTITLE0=Gil
TTITLE1=Blue
TTITLE2=Achill Island
TTITLE3=Waves
TTITLE4=Tricotism
TTITLE5=A Notional Anthem
TTITLE6=Southern Reunion
TTITLE7=Grand Unified Boogie
TTITLE8=Fractal Landscape
TTITLE9=Shin-Kan-Sen
EXTD=YEAR: 1991 ID3G: 8
EXTT0=
EXTT1=
EXTT2=
EXTT3=
EXTT4=
EXTT5=
EXTT6=
EXTT7=
EXTT8=
EXTT9=
PLAYORDER=
